<svg width="32" height="32" viewBox="0 0 32 32" xmlns="http://www.w3.org/2000/svg">
  <defs>
    <linearGradient id="g" x1="0" y1="0" x2="1" y2="1">
      <stop offset="0%" stop-color="#3B82F6"/>
      <stop offset="100%" stop-color="#A855F7"/>
    </linearGradient>
  </defs>
  <rect width="32" height="32" rx="8" fill="url(#g)"/>
  <!-- Star with hollow middle (even-odd rule) -->
  <path fill="#fff" fill-rule="evenodd" d="M16 7c1.3 3.2 3.1 5 6.1 6.1C19 14.4 17.2 16.2 16 19.2 14.8 16.2 13 14.4 9.9 13.1 12.9 12 14.7 10.2 16 7z M16 9.8c0.7 1.6 1.9 2.8 4 3.4-2.1 0.6-3.3 1.8-4 4-0.7-2.2-1.9-3.4-4-4 2.1-0.6 3.3-1.8 4-3.4z"/>
  <!-- Bottom-left small dot (moved further out) -->
  <circle cx="10.2" cy="24.0" r="1.4" fill="#fff"/>
  <!-- Top-right plus (moved further out) -->
  <rect x="24.4" y="9.5" width="3.0" height="1.2" rx="0.6" fill="#fff"/>
  <rect x="25.3" y="8.6" width="1.2" height="3.0" rx="0.6" fill="#fff"/>
</svg>
